<svg xmlns="http://www.w3.org/2000/svg" xmlns:xlink="http://www.w3.org/1999/xlink" viewBox="0 0 366.71 254.33"><defs><style>.cls-1{fill:url(#linear-gradient);}.cls-2{fill:url(#linear-gradient-2);}.cls-3{fill:#333;}.cls-4{fill:none;}.cls-5{fill:#cecece;}</style><linearGradient id="linear-gradient" x1="-152.58" y1="-205.01" x2="-63.73" y2="-10.45" gradientTransform="translate(171.72 216.23) rotate(6.32)" gradientUnits="userSpaceOnUse"><stop offset="0" stop-color="#828181"/><stop offset="0.01" stop-color="#979696"/><stop offset="0.02" stop-color="#acacac"/><stop offset="0.04" stop-color="#bdbdbd"/><stop offset="0.06" stop-color="#c8c8c8"/><stop offset="0.08" stop-color="#cfcfcf"/><stop offset="0.16" stop-color="#d1d1d1"/><stop offset="0.3" stop-color="#adadad"/><stop offset="0.54" stop-color="#767676"/><stop offset="0.74" stop-color="#4d4d4d"/><stop offset="0.9" stop-color="#343434"/><stop offset="1" stop-color="#2b2b2b"/></linearGradient><linearGradient id="linear-gradient-2" x1="24.3" y1="76.91" x2="110.11" y2="264.81" gradientTransform="matrix(1, 0, 0, 1, 0, 0)" xlink:href="#linear-gradient"/></defs><g id="Layer_2" data-name="Layer 2"><g id="svg1"><path class="cls-1" d="M92.06,196.11A226.23,226.23,0,0,1,33.4,147.6c-4.78-5.62-8-15,.76-20.07,7.72-4.44,16.35,0,19.61,5.54s4.85,12.52,12,15c-8.15-17-24.8-29.38-37.69-43.85S5.83,71,14.15,51L30.3,57.36,24,17.5C23,11.3,24.67,2,33.1.23c6.36-1.34,10.12,3.35,12.19,7.54a214,214,0,0,1,21,73.33c5.25-7.3,14-13.5,23.61-16.77,8,12.09,8.16,28.17.48,43.3,3.54-8,7.54-16.64,16-22.72s22.74-7.59,26.22-.85c2.39,4.61-1,10.72-4.38,16.08Q114,122.85,99.52,145.47c5.77,1.06,6.29,8.27.84,11.88l8.69-3.17-8.43,41.5Z"/><path class="cls-2" d="M141.45,239.35l-2.5,3.81-2.21,3.35-40-13.78,7.13-5.88C98,229.71,92,225.61,94,220.1q-26.86,1-53.62,1.73c-6.31.17-13.31,0-16.07-4.38-4-6.42,4.5-17.95,14-22.16,7.79-3.45,15.53-3.47,22.86-2.81-14.7-2.19-26.49-10.1-32.25-21.84,7.7-6.64,17.48-11,26.43-11.85A214.1,214.1,0,0,1,2.83,103.53C.27,99.62-1.86,94,2.52,89.21c5.81-6.37,14.67-3.13,19.52.87l31.13,25.68q1.36-8.58,2.72-17.14c14.64,2,24.58,10.81,31.3,22a81.67,81.67,0,0,1,7.47,16.9c5.94,18.44,8.17,39.08,18.68,54.71,1.53-7.37-3.71-12.29-6.81-17.89s-2.57-15.31,5.17-19.72c5.44-3.09,10-1.36,13.27,2.07-11.63,3.9-12.86,10.65-12.33,21.15.7,13.74,2.72,32.6,28,40.24Q141.48,228.59,141.45,239.35Z"/><path class="cls-3" d="M218.08,206.17l.09-.22m0,0a17,17,0,0,0,1.62-5.52c.9-12.13,4.92-11,4.92-11s4-1.13,4.92,11S259.76,248,293.75,246s69.64-17.49,72.63-78.12-14.32-62.47-36.09-70.09c0,0,21.32,15.23,18,19.32s-7.45,14.95-16.25,11.7-23.41-13.25-56.52.85-50.85,21.72-50.85,21.72-17.74-7.62-50.85-21.72-47.71-4.09-56.51-.85-13-7.61-16.25-11.7,18-19.32,18-19.32c-21.77,7.62-39.07,9.45-36.09,70.09S121.67,244,155.67,246c29.61,1.72,55.59-24.9,62.41-39.81M153.71,221.4c-37.59-4.52-40.14-27.08-40.93-42.87s2.38-23.13,39-25,50.11,28.58,50.11,28.58S191.31,225.91,153.71,221.4Zm182.94-42.87c-.79,15.79-3.34,38.35-40.94,42.87s-48.13-39.3-48.13-39.3,13.52-30.46,50.1-28.58S337.45,162.73,336.65,178.53Z"/><path class="cls-4" d="M330.17,97.14c.6.43,21.26,15.28,18,19.31s-7.46,15-16.25,11.7-23.42-13.25-56.52.85-50.85,21.71-50.85,21.71S206.84,143.1,173.73,129s-47.72-4.09-56.51-.85-13-7.61-16.26-11.7,17.44-18.88,18-19.31c-13.67,4.77-25.58,7.28-31.81,23.52-3.68,9.6-5.38,24-4.27,46.55,2.49,50.77,27.88,69.9,56,75.95a108.46,108.46,0,0,0,16.59,2.18c29.6,1.72,55.59-24.9,62.4-39.81l.1-.22a17.39,17.39,0,0,0,1.62-5.52c.9-12.13,4.92-11,4.92-11s4-1.13,4.92,11,30.12,47.52,64.12,45.55,69.64-17.49,72.62-78.13S351.94,104.74,330.17,97.14ZM153.58,220.75a75.79,75.79,0,0,1-13-2.63c-25.25-7.64-27.27-26.5-28-40.24-.53-10.5.7-17.25,12.33-21.15,5.86-2,14.38-3.22,26.64-3.85,36.59-1.88,50.11,28.58,50.11,28.58S191.18,225.27,153.58,220.75Zm182.94-42.87c-.8,15.8-3.34,38.36-40.94,42.87s-48.13-39.29-48.13-39.29S261,151,297.55,152.88,337.31,162.09,336.52,177.88ZM218,205.31l-.1.22"/><path class="cls-4" d="M224.51,149.37c-5.48-2.35-22.18-9.5-48.86-20.87-33.1-14.1-47.72-4.09-56.51-.84s-13-7.62-16.26-11.71c-1.49-1.86,2.13-6,6.52-10m233.65-.5c4.63,4.15,8.63,8.61,7.07,10.55-3.28,4.09-7.46,15-16.26,11.71s-23.41-13.26-56.51.84c-26.88,11.45-43.63,18.63-49,20.92M114.71,179.94q-.09-1.31-.15-2.55c-.79-15.8,2.39-23.13,39-25S203.64,181,203.64,181a56.51,56.51,0,0,1-1.91,5.93M253.88,193a66.31,66.31,0,0,1-4.51-12s13.52-30.46,50.1-28.58,39.76,9.21,39,25c-.13,2.49-.3,5.15-.64,7.89"/><path class="cls-5" d="M250.48,184.65a3.91,3.91,0,0,1,2.9,7.25,3.91,3.91,0,1,1-2.9-7.25Z"/><path class="cls-5" d="M251.89,176.49a4.21,4.21,0,0,1,1.76,2.42,4.29,4.29,0,0,1,.14,1.42,3.83,3.83,0,0,1-.13.69c0,.11-.08.24-.11.33s0,0,0,0a.89.89,0,0,0-.22,0,1.59,1.59,0,0,0-.54.15,3.2,3.2,0,0,0-.36.19c-.11.11-.21.31-.34.46a4.17,4.17,0,0,1-2,1.39,3.77,3.77,0,0,1-2.44,0,1.88,1.88,0,0,1-.56-.29,5.14,5.14,0,0,1-.61-.68,9.57,9.57,0,0,1-1.06-1.92,10.39,10.39,0,0,1,.83-2.25c.12-.23.26-.49.38-.68s.17-.24.26-.36a4,4,0,0,1,.59-.58,3.78,3.78,0,0,1,1.41-.72A3.69,3.69,0,0,1,251.89,176.49Z"/><path class="cls-5" d="M257.35,169.37a3.9,3.9,0,0,1-4.82,6.14,3.91,3.91,0,1,1,4.82-6.14Z"/><path class="cls-5" d="M263.9,163.23a3.91,3.91,0,0,1-5.76,5.28,3.91,3.91,0,1,1,5.76-5.28Z"/><path class="cls-5" d="M271.41,158.31a4.07,4.07,0,0,1-1.25,5.29,3.75,3.75,0,0,1-2.79.49,4.16,4.16,0,0,1-2.54-1.57,3.73,3.73,0,0,1-.7-2.94,4,4,0,0,1,1.79-2.6A3.81,3.81,0,0,1,271.41,158.31Z"/><path class="cls-5" d="M279.68,154.82a4.14,4.14,0,0,1-.19,3,3.68,3.68,0,0,1-4.82,2,4.14,4.14,0,0,1-2.22-2,3.81,3.81,0,0,1,2.06-5.26,4.09,4.09,0,0,1,3.17,0A3.78,3.78,0,0,1,279.68,154.82Z"/><path class="cls-5" d="M288.43,152.84a3.91,3.91,0,0,1-7.64,1.63,3.91,3.91,0,1,1,7.64-1.63Z"/><path class="cls-5" d="M297.39,152.33a4.08,4.08,0,0,1-1.14,2.75,3.65,3.65,0,0,1-2.58,1.22,4,4,0,0,1-4.08-3.62,3.82,3.82,0,0,1,3.71-4.23,4.11,4.11,0,0,1,2.95,1.07A3.82,3.82,0,0,1,297.39,152.33Z"/><path class="cls-5" d="M306.37,152.84a3.91,3.91,0,0,1-7.81-.48,3.91,3.91,0,1,1,7.81.48Z"/><path class="cls-5" d="M315.3,153.82a3.91,3.91,0,0,1-7.77-.88,3.91,3.91,0,1,1,7.77.88Z"/><path class="cls-5" d="M324.1,155.62a4,4,0,0,1-4.6,2.92,4,4,0,0,1-3-4.54,3.91,3.91,0,1,1,7.64,1.62Z"/><path class="cls-5" d="M332.3,159.19a4.86,4.86,0,0,1-2.4,1.76,4.37,4.37,0,0,1-1.33.23,3.74,3.74,0,0,1-1.29-.28,4.17,4.17,0,0,1-2.06-5,3.76,3.76,0,0,1,5.26-2.23,4.14,4.14,0,0,1,1.45,1,3.73,3.73,0,0,1,.84,1.43A3.35,3.35,0,0,1,332.3,159.19Z"/><path class="cls-5" d="M337.58,166.24a5.12,5.12,0,0,1-3,0,3,3,0,0,1-2.43-3.55,5.27,5.27,0,0,1,1.05-2.77,3.25,3.25,0,0,1,2.77-1.27,4.18,4.18,0,0,1,3.13,1.9,4.82,4.82,0,0,1,.76,1.85,3.88,3.88,0,0,1-.13,1.75A3.23,3.23,0,0,1,337.58,166.24Z"/><path class="cls-5" d="M338.52,175.14a4.09,4.09,0,0,1-4-3.64,3.62,3.62,0,0,1,.86-2.52,4.81,4.81,0,0,1,2.5-1.61,3.38,3.38,0,0,1,3,.64,4.1,4.1,0,0,1,1.51,3A3.78,3.78,0,0,1,338.52,175.14Z"/><path class="cls-5" d="M337.89,184.11a4,4,0,0,1-3.6-4.2,3.8,3.8,0,0,1,1.37-2.59,4.06,4.06,0,0,1,2.82-1,3.79,3.79,0,0,1,2.73,1.29,4,4,0,0,1,.92,2.91A3.83,3.83,0,0,1,337.89,184.11Z"/><path class="cls-5" d="M114.56,171.17a4,4,0,0,1,3.85,3.74,4,4,0,0,1-3.77,3.88,3.81,3.81,0,0,1-4.09-3.73A3.75,3.75,0,0,1,114.56,171.17Z"/><path class="cls-5" d="M117,162.85a5.53,5.53,0,0,1,1.87,2.29,3.22,3.22,0,0,1,.26,2.33,3.6,3.6,0,0,1-1.6,1.88,4.67,4.67,0,0,1-2.89.68,3.5,3.5,0,0,1-2.6-1.54,3.92,3.92,0,0,1-.4-3.37,4.11,4.11,0,0,1,2.35-2.64A3.2,3.2,0,0,1,117,162.85Z"/><path class="cls-5" d="M123.79,157.45a4.72,4.72,0,0,1,.29,3,5.18,5.18,0,0,1-.49,1.23,3.38,3.38,0,0,1-.82.9,3.26,3.26,0,0,1-2.33.48,5.49,5.49,0,0,1-2.74-1.09,3.24,3.24,0,0,1-1.26-2.76,4.07,4.07,0,0,1,1.76-3,4,4,0,0,1,1.68-.73,3.52,3.52,0,0,1,3.91,2Z"/><path class="cls-5" d="M132.15,154.81a4,4,0,0,1-2.6,4.7,3.54,3.54,0,0,1-2.7-.32,4.47,4.47,0,0,1-2-2.2,3.59,3.59,0,0,1,.08-3,3.92,3.92,0,0,1,2.42-2A3.77,3.77,0,0,1,132.15,154.81Z"/><path class="cls-5" d="M140.81,153.41a3.82,3.82,0,1,1-7.54,1.17,3.82,3.82,0,1,1,7.54-1.17Z"/><path class="cls-5" d="M149.55,152.62a3.82,3.82,0,1,1-7.6.66,3.82,3.82,0,1,1,7.6-.66Z"/><path class="cls-5" d="M158.32,152.34a4.19,4.19,0,0,1-1.14,2.75,3.61,3.61,0,0,1-2.54,1.19,3.94,3.94,0,0,1-3.95-3.73,3.81,3.81,0,0,1,3.67-4.12,3.77,3.77,0,0,1,4,3.91Z"/><path class="cls-5" d="M167,153.24a4.22,4.22,0,0,1-1.55,2.54,3.46,3.46,0,0,1-2.66.78,4,4,0,0,1-3.37-4.19,3.79,3.79,0,0,1,4.25-3.61,4,4,0,0,1,2.68,1.53A3.81,3.81,0,0,1,167,153.24Z"/><path class="cls-5" d="M175.49,155.57a4.2,4.2,0,0,1-2,2.23,3.53,3.53,0,0,1-4.9-1.41,4.22,4.22,0,0,1-.47-2.93,3.79,3.79,0,0,1,1.72-2.48,3.9,3.9,0,0,1,5.47,1.57A3.81,3.81,0,0,1,175.49,155.57Z"/><path class="cls-5" d="M183.41,159.32a4.26,4.26,0,0,1-2.33,1.88,3.54,3.54,0,0,1-1.4.18,3.17,3.17,0,0,1-1.37-.33,3.68,3.68,0,0,1-1.8-2.09,4.28,4.28,0,0,1,.05-3,3.68,3.68,0,0,1,2.12-2.13,3.83,3.83,0,0,1,3.1.15,4.43,4.43,0,0,1,1.29,1,4,4,0,0,1,.72,1.37A3.72,3.72,0,0,1,183.41,159.32Z"/><path class="cls-5" d="M190.55,164.41a4,4,0,0,1-5.32.81,3.57,3.57,0,0,1-1.42-2.38,4.24,4.24,0,0,1,.57-2.92,3.79,3.79,0,0,1,2.47-1.73,3.9,3.9,0,0,1,3,.69A3.77,3.77,0,0,1,190.55,164.41Z"/><path class="cls-5" d="M196.74,170.61a4,4,0,0,1-5.38-.07,3.64,3.64,0,0,1-1-2.59,4.2,4.2,0,0,1,1.06-2.78,3.77,3.77,0,0,1,2.72-1.3,3.85,3.85,0,0,1,2.85,1.18A3.76,3.76,0,0,1,196.74,170.61Z"/><path class="cls-5" d="M201.88,177.72a3.81,3.81,0,0,1-4.4-6.23,3.82,3.82,0,1,1,4.4,6.23Z"/><path class="cls-5" d="M202.12,185.82a4.21,4.21,0,0,1-2.26-1.95,4,4,0,0,1-.44-1.36,3.37,3.37,0,0,1,0-.71,2,2,0,0,1,0-.35c0-.09,0-.08,0-.08h0a.5.5,0,0,0,.23,0,1.65,1.65,0,0,0,.52-.24,1.4,1.4,0,0,0,.59-.68,4.3,4.3,0,0,1,1.67-1.72,3.62,3.62,0,0,1,2.36-.47,2.54,2.54,0,0,1,1.35.75,8.23,8.23,0,0,1,1.37,1.6,10.61,10.61,0,0,1-.38,2.41l-.12.38c0,.13-.08.26-.1.3a2.53,2.53,0,0,1-.18.37,3.79,3.79,0,0,1-.44.66,3.91,3.91,0,0,1-1.2.95A3.84,3.84,0,0,1,202.12,185.82Z"/><path class="cls-5" d="M349.28,112a4.84,4.84,0,0,1-2.88.77,3.69,3.69,0,0,1-2.5-1.13,4.09,4.09,0,0,1,0-5.48,3.84,3.84,0,0,1,5.69.09,4.21,4.21,0,0,1,1.17,3.11A3.34,3.34,0,0,1,349.28,112Z"/><path class="cls-5" d="M347.41,120a4,4,0,0,1-1.72-2.47,3.8,3.8,0,0,1,0-1.54,4.65,4.65,0,0,1,.24-.78c.06-.13.12-.25.19-.38a2.52,2.52,0,0,0,.13-.24h0a1.76,1.76,0,0,0,1.27-.17c.67-.28,1.41-.94,2.37-1.36a2.69,2.69,0,0,1,3.12.66,5.14,5.14,0,0,1,.61.89,3.43,3.43,0,0,1,.31,1.17,4.32,4.32,0,0,1-.75,2.63l-.26.36c-.2.26-.24.32-.33.42a3.33,3.33,0,0,1-.25.28,5.46,5.46,0,0,1-.59.46,4.08,4.08,0,0,1-1.37.58A3.85,3.85,0,0,1,347.41,120Z"/><path class="cls-5" d="M341.46,126.82a4.85,4.85,0,0,1-.62-1.43,6.15,6.15,0,0,1-.2-1.41,3.39,3.39,0,0,1,.78-2.38,4.2,4.2,0,0,1,5.34-.61,3.78,3.78,0,0,1,.6,5.75,4.35,4.35,0,0,1-3.21,1.55,3,3,0,0,1-1.56-.39A3.24,3.24,0,0,1,341.46,126.82Z"/><path class="cls-5" d="M332.78,127.23a4.12,4.12,0,0,1,2-2.18,3.44,3.44,0,0,1,2-.76l.4.08a1.66,1.66,0,0,1,.4.2,6.42,6.42,0,0,1,.9.64,7,7,0,0,1,1.94,2.2,2.92,2.92,0,0,1-.21,3.08,4,4,0,0,1-1.54,1.24,5.79,5.79,0,0,1-1.09.33,3.4,3.4,0,0,1-1.19.08,4.42,4.42,0,0,1-3.5-1.88A3.64,3.64,0,0,1,332.78,127.23Z"/><path class="cls-5" d="M324.3,123.85a3.88,3.88,0,0,1,5.2-2.25,3.93,3.93,0,1,1-3,7.28A4,4,0,0,1,324.3,123.85Z"/><path class="cls-5" d="M315.45,121.69a3.65,3.65,0,0,1,1.61-2.55,3.84,3.84,0,0,1,3.17-.54,4.54,4.54,0,0,1,1.55.68,4.25,4.25,0,0,1,1.06,1.19,3.66,3.66,0,0,1,.33,3,4.19,4.19,0,0,1-1.89,2.34,3.8,3.8,0,0,1-1.36.47,3.59,3.59,0,0,1-1.46,0,4.14,4.14,0,0,1-2.33-1.64A4.2,4.2,0,0,1,315.45,121.69Z"/><path class="cls-5" d="M306.35,121.24a3.75,3.75,0,0,1,1.12-2.83,4.26,4.26,0,0,1,3-1.1,4,4,0,0,1,2.91,1.35,3.63,3.63,0,0,1,.89,2.87,4.2,4.2,0,0,1-1.42,2.66,4,4,0,0,1-2.68,1,3.64,3.64,0,0,1-2.61-1.2A4,4,0,0,1,306.35,121.24Z"/><path class="cls-5" d="M297.29,122.28a3.86,3.86,0,0,1,.68-3,4,4,0,0,1,2.76-1.55,3.83,3.83,0,0,1,4.43,3.54,4.09,4.09,0,0,1-3.46,4.26,4.11,4.11,0,0,1-4.41-3.29Z"/><path class="cls-5" d="M288.43,124.45a4,4,0,1,1,7.7-1.94,4,4,0,0,1-7.7,1.94Z"/><path class="cls-5" d="M279.85,127.52a4,4,0,1,1,5,2.24A3.92,3.92,0,0,1,279.85,127.52Z"/><path class="cls-5" d="M271.42,131a4,4,0,1,1,5.19,2.06A4,4,0,0,1,271.42,131Z"/><path class="cls-5" d="M263,134.62a4,4,0,1,1,5.19,2A3.94,3.94,0,0,1,263,134.62Z"/><path class="cls-5" d="M254.64,138.2a4,4,0,1,1,5.19,2.06A3.95,3.95,0,0,1,254.64,138.2Z"/><path class="cls-5" d="M246.25,141.78a4,4,0,1,1,5.19,2.06A3.94,3.94,0,0,1,246.25,141.78Z"/><path class="cls-5" d="M237.86,145.37a4,4,0,1,1,5.19,2A3.94,3.94,0,0,1,237.86,145.37Z"/><path class="cls-5" d="M229.46,149a4,4,0,1,1,5.2,2.06A4,4,0,0,1,229.46,149Z"/><path class="cls-5" d="M216.16,145.8a3.95,3.95,0,1,1,2.09,5.17A3.95,3.95,0,0,1,216.16,145.8Z"/><path class="cls-5" d="M207.82,142.24a3.95,3.95,0,1,1,2.09,5.16A3.93,3.93,0,0,1,207.82,142.24Z"/><path class="cls-5" d="M199.48,138.68a3.95,3.95,0,1,1,2.09,5.16A3.94,3.94,0,0,1,199.48,138.68Z"/><path class="cls-5" d="M191.14,135.12a3.95,3.95,0,1,1,2.08,5.16A3.94,3.94,0,0,1,191.14,135.12Z"/><path class="cls-5" d="M182.8,131.56a3.94,3.94,0,1,1,2.08,5.16A3.93,3.93,0,0,1,182.8,131.56Z"/><path class="cls-5" d="M174.44,128a3.95,3.95,0,1,1,2.1,5.14A3.94,3.94,0,0,1,174.44,128Z"/><path class="cls-5" d="M165.93,124.9a3.94,3.94,0,1,1,7.41,2.69,3.94,3.94,0,0,1-7.41-2.69Z"/><path class="cls-5" d="M157.17,122.57a3.82,3.82,0,0,1,4.82-2.9,4.1,4.1,0,0,1,2.5,1.85,3.82,3.82,0,0,1,.32,3,4.06,4.06,0,0,1-1.89,2.32,3.79,3.79,0,0,1-2.89.43A4.06,4.06,0,0,1,157.17,122.57Z"/><path class="cls-5" d="M148.2,121.33a3.75,3.75,0,0,1,1.38-2.71,4,4,0,0,1,3-.8,3.83,3.83,0,0,1,3.39,4.52,4.06,4.06,0,0,1-4.4,3.27,3.86,3.86,0,0,1-2.5-1.45A4.07,4.07,0,0,1,148.2,121.33Z"/><path class="cls-5" d="M139.14,121.5a3.69,3.69,0,0,1,.91-2.88,3.89,3.89,0,0,1,2.9-1.32,4.08,4.08,0,0,1,3,1.12,3.76,3.76,0,0,1,1.09,2.84A4,4,0,0,1,145.8,124a3.84,3.84,0,0,1-2.61,1.18,4,4,0,0,1-2.66-1A4.22,4.22,0,0,1,139.14,121.5Z"/><path class="cls-5" d="M130.27,123.34a3.81,3.81,0,0,1,3-4.84,3.92,3.92,0,0,1,3.15.57,3.61,3.61,0,0,1,1.58,2.56,4.27,4.27,0,0,1-.69,2.93,4,4,0,0,1-2.33,1.61A4.1,4.1,0,0,1,130.27,123.34Z"/><path class="cls-5" d="M121.81,126.58a3.9,3.9,0,0,1,2.17-5.17,4,4,0,0,1,3.15,0,3.68,3.68,0,0,1,2,2.23,4.07,4.07,0,0,1-.16,3,3.86,3.86,0,0,1-2.07,2A4,4,0,0,1,121.81,126.58Z"/><path class="cls-5" d="M113.09,127.65a5.36,5.36,0,0,1,.81-1.31,8.86,8.86,0,0,1,1-1c.3-.25.58-.54.84-.72a2.05,2.05,0,0,1,.39-.2,1,1,0,0,1,.41-.13,3.68,3.68,0,0,1,.94.11,3.58,3.58,0,0,1,.54.24,5,5,0,0,1,.67.25,4.21,4.21,0,0,1,2.06,2.17,3.65,3.65,0,0,1-.08,3,3.2,3.2,0,0,1-.42.68,5.8,5.8,0,0,1-.75.6,4.27,4.27,0,0,1-2,.74,7.68,7.68,0,0,1-1.17,0,4.26,4.26,0,0,1-1.09-.28,3.47,3.47,0,0,1-1.63-1.11,3,3,0,0,1-.67-1.48A3.26,3.26,0,0,1,113.09,127.65Z"/><path class="cls-5" d="M106.59,121.51a4.26,4.26,0,0,1,5.32.46,2.71,2.71,0,0,1,.61,1,3.73,3.73,0,0,1,.19,1.25,5.82,5.82,0,0,1-.68,2.87,3.09,3.09,0,0,1-2.62,1.6,4.13,4.13,0,0,1-1.74-.35,4.86,4.86,0,0,1-1.56-1.11A3.75,3.75,0,0,1,106.59,121.51Z"/><path class="cls-5" d="M102.82,113.68c.94.23,1.68.67,2.38.88a2.26,2.26,0,0,0,1.47.07l0,0s0,0,.06,0,.2.25.29.38a3.92,3.92,0,0,1-1.12,5.5,4,4,0,0,1-5.41-1.13c-.08-.12-.15-.24-.22-.36s-.27-.46-.41-.68a3.26,3.26,0,0,1,.22-3.88,2.91,2.91,0,0,1,.61-.52,2.48,2.48,0,0,1,.7-.29A2.84,2.84,0,0,1,102.82,113.68Z"/><path class="cls-5" d="M108.53,106.7a4.09,4.09,0,0,1,.13,5.45,3.54,3.54,0,0,1-2.42,1.13,5.17,5.17,0,0,1-2.89-.66,3.21,3.21,0,0,1-1.62-2.58,4.28,4.28,0,0,1,1.12-3.18A3.83,3.83,0,0,1,108.53,106.7Z"/><path class="cls-5" d="M240.71,222.05a7.41,7.41,0,0,1-5.68,2,8,8,0,0,1-7-9.33,7.1,7.1,0,0,1,3.55-4.87,9.16,9.16,0,0,1,5.86-1,7.07,7.07,0,0,1,4.64,2.67,7.26,7.26,0,0,1,1.32,5.28A8.6,8.6,0,0,1,240.71,222.05Z"/><path class="cls-5" d="M253.8,233.73a7.37,7.37,0,0,1-5.17,3.07,7.88,7.88,0,0,1-8.66-7.53,7.39,7.39,0,0,1,2.32-5.55,8.51,8.51,0,0,1,5.47-2.37,7,7,0,0,1,7.63,6.63A8.61,8.61,0,0,1,253.8,233.73Z"/><path class="cls-5" d="M269.06,242.35a7.28,7.28,0,0,1-4.34,4.18A7.94,7.94,0,0,1,254.53,241a7.42,7.42,0,0,1,1.14-5.91,8.6,8.6,0,0,1,4.88-3.43,6.93,6.93,0,0,1,8.75,4.78A8.81,8.81,0,0,1,269.06,242.35Z"/><path class="cls-5" d="M286.06,246.49a7.12,7.12,0,0,1-2.88,5.31,7.91,7.91,0,0,1-6.39,1.22,7.81,7.81,0,0,1-5.21-3.82,7.22,7.22,0,0,1-.38-6,9,9,0,0,1,3.85-4.55,7.14,7.14,0,0,1,5.2-.94,7.07,7.07,0,0,1,4.25,3.07A9.16,9.16,0,0,1,286.06,246.49Z"/><path class="cls-5" d="M303.56,245.37a7.45,7.45,0,0,1-1.47,5.83,7.72,7.72,0,0,1-5.43,2.92,8.22,8.22,0,0,1-3.19-.38,7.26,7.26,0,0,1-1.47-.65,7.06,7.06,0,0,1-3.65-6.48,9.36,9.36,0,0,1,2.13-5.55,8.2,8.2,0,0,1,1-1,6.91,6.91,0,0,1,1.12-.78,6.45,6.45,0,0,1,2.73-.83,7.26,7.26,0,0,1,5.31,1.73A8.5,8.5,0,0,1,303.56,245.37Z"/><path class="cls-5" d="M320.55,241a7.37,7.37,0,0,1-.32,6,7.67,7.67,0,0,1-4.93,3.9,7.07,7.07,0,0,1-3.28.18,7.69,7.69,0,0,1-2.89-1.08,7.44,7.44,0,0,1-3.31-5,8.53,8.53,0,0,1,1.09-5.86,7.48,7.48,0,0,1,1.84-2.14,8,8,0,0,1,2.49-1.25,7.31,7.31,0,0,1,5.41.76A8.7,8.7,0,0,1,320.55,241Z"/><path class="cls-5" d="M336,232.84a7.28,7.28,0,0,1,1.24,5.92,8,8,0,0,1-1.37,2.84,7.34,7.34,0,0,1-2.56,2.21,7.77,7.77,0,0,1-6.35.56,7.31,7.31,0,0,1-4.32-4.19,8.69,8.69,0,0,1-.21-6,7.26,7.26,0,0,1,3.34-4.22,7.78,7.78,0,0,1,2.57-.78,7.5,7.5,0,0,1,2.76.27A8.89,8.89,0,0,1,336,232.84Z"/><path class="cls-5" d="M348.61,220.67a7.27,7.27,0,0,1,2.88,5.3,7.72,7.72,0,0,1-2.33,6,7.08,7.08,0,0,1-2.85,1.87,8.14,8.14,0,0,1-3.12.51,6.52,6.52,0,0,1-2.93-.82,7.47,7.47,0,0,1-2.38-2,9,9,0,0,1-1.83-5.66,7.55,7.55,0,0,1,.51-2.71,8.26,8.26,0,0,1,1.46-2.23,7.2,7.2,0,0,1,4.92-2A8.8,8.8,0,0,1,348.61,220.67Z"/><path class="cls-5" d="M357.34,205.49a7.4,7.4,0,0,1,4.16,4.37,6.82,6.82,0,0,1,.41,3.11,8.73,8.73,0,0,1-1,3.19,7.3,7.3,0,0,1-2.16,2.56,7.85,7.85,0,0,1-2.88,1.33,7.09,7.09,0,0,1-5.86-1.2,9.05,9.05,0,0,1-3.41-4.93,7.64,7.64,0,0,1,.55-5.35,6,6,0,0,1,1.8-2,9.26,9.26,0,0,1,2.45-1.29A8.64,8.64,0,0,1,357.34,205.49Z"/><path class="cls-5" d="M98.17,220.78a7.1,7.1,0,0,1-5.82,1.42,8,8,0,0,1-6-10,7.38,7.38,0,0,1,4-4.49,8.57,8.57,0,0,1,5.92-.46,7.4,7.4,0,0,1,4.36,3.17,8.15,8.15,0,0,1,.86,2.56,7.09,7.09,0,0,1-.14,2.74A9.11,9.11,0,0,1,98.17,220.78Z"/><path class="cls-5" d="M110.77,232.89a7.44,7.44,0,0,1-5.21,3.1,8.3,8.3,0,0,1-6.07-2.13,8.21,8.21,0,0,1-2.56-5.9,7.37,7.37,0,0,1,2.7-5.42,8.72,8.72,0,0,1,5.57-2,6.77,6.77,0,0,1,7.15,6.65A8.7,8.7,0,0,1,110.77,232.89Z"/><path class="cls-5" d="M126.24,241.05a7.2,7.2,0,0,1-4.17,4.31,8,8,0,0,1-3.1.54,8.45,8.45,0,0,1-5.88-3,8,8,0,0,1-1.44-2.83,7.05,7.05,0,0,1,1-5.91,9,9,0,0,1,4.79-3.57,7.17,7.17,0,0,1,2.72-.34,6.21,6.21,0,0,1,4.73,2.38,7.17,7.17,0,0,1,1.38,2.39A9,9,0,0,1,126.24,241.05Z"/><path class="cls-5" d="M143.21,245.37a7.58,7.58,0,0,1-3.19,5.11,7.76,7.76,0,0,1-6.12,1.08,8.06,8.06,0,0,1-5-3.73,7.55,7.55,0,0,1-.48-6,8.49,8.49,0,0,1,3.75-4.59,7,7,0,0,1,5.4-.93,7.18,7.18,0,0,1,4.43,3.27A8.43,8.43,0,0,1,143.21,245.37Z"/><path class="cls-5" d="M160.68,246.49a7.12,7.12,0,0,1-4.82,7.36,9.94,9.94,0,0,1-1.67.41,7.82,7.82,0,0,1-1.67.05,7.6,7.6,0,0,1-5.46-2.82,7.51,7.51,0,0,1-1.59-5.78,8.48,8.48,0,0,1,2.85-5.26,7.4,7.4,0,0,1,5.28-1.83,8.29,8.29,0,0,1,1.4.26,5.77,5.77,0,0,1,1.18.49,8.63,8.63,0,0,1,2.11,1.68A9.35,9.35,0,0,1,160.68,246.49Z"/><path class="cls-5" d="M177.65,242.36a7.26,7.26,0,0,1-.15,6,7.81,7.81,0,0,1-2,2.48,8.4,8.4,0,0,1-3,1.54,7.91,7.91,0,0,1-6.41-1,7.15,7.15,0,0,1-3.12-5.16,9.1,9.1,0,0,1,1.31-5.8,6.92,6.92,0,0,1,4.13-3.25,6.09,6.09,0,0,1,2.65-.14,7.54,7.54,0,0,1,2.6.87A8.84,8.84,0,0,1,177.65,242.36Z"/><path class="cls-5" d="M192.89,233.76a7.33,7.33,0,0,1,1.31,5.87,7.66,7.66,0,0,1-3.7,5.08,7.79,7.79,0,0,1-6.28.78,7.28,7.28,0,0,1-4.47-4,8.78,8.78,0,0,1-.43-5.94,7.17,7.17,0,0,1,3.21-4.35,7.28,7.28,0,0,1,5.4-.7A8.65,8.65,0,0,1,192.89,233.76Z"/><path class="cls-5" d="M206,222.12a7.37,7.37,0,0,1,2.46,5.48,7.86,7.86,0,0,1-8.45,7.74,7.45,7.45,0,0,1-5.25-2.94,8.6,8.6,0,0,1-1.74-5.71,7,7,0,0,1,7.45-6.81A8.54,8.54,0,0,1,206,222.12Z"/><path class="cls-5" d="M216.17,207.91a6.92,6.92,0,0,1,3.77,4.72,7.87,7.87,0,0,1-1.31,6.31,7.71,7.71,0,0,1-5.4,3.29,7.37,7.37,0,0,1-5.73-1.82,8.62,8.62,0,0,1-2.85-5.24,7.2,7.2,0,0,1,1.14-5.28,7,7,0,0,1,4.5-2.77A9.38,9.38,0,0,1,216.17,207.91Z"/></g></g></svg>